<svg width="315" height="394" viewBox="0 0 315 394" fill="none" xmlns="http://www.w3.org/2000/svg">
<path d="M104.5 170.152V248.257C104.5 252.617 108.034 256.152 112.394 256.152C114.684 256.152 116.861 255.157 118.361 253.426L190.5 170.152H313L212 271.152H95C63.5 268.485 0.5 244.552 0.5 170.152V28.5183L104.5 0.651611V170.152Z" fill="black"/>
<path d="M0.5 170.152H104.5M0.5 170.152C0.5 244.552 63.5 268.485 95 271.152H212L313 170.152H190.5L118.361 253.426C116.861 255.157 114.684 256.152 112.394 256.152C108.034 256.152 104.5 252.617 104.5 248.257V170.152M0.5 170.152V28.5183L104.5 0.651611V170.152" stroke="black"/>
<path d="M104.5 393.152H0.5C0.5 318.752 63.5 294.818 95 292.152H212L313 393.152H190.5L118.361 309.877C116.861 308.146 114.684 307.152 112.394 307.152C108.034 307.152 104.5 310.686 104.5 315.046V393.152Z" fill="black" stroke="black"/>
</svg>
